<svg width="40" height="40" viewBox="0 0 40 40" fill="none" xmlns="http://www.w3.org/2000/svg">
<path d="M39.653 16.015H28.5477C28.3568 16.015 28.2007 16.1765 28.2007 16.3739V18.5272C28.2007 18.7246 28.3568 18.8861 28.5477 18.8861H39.653C39.8438 18.8861 40 18.7246 40 18.5272V16.3739C40 16.1765 39.8438 16.015 39.653 16.015ZM33.8401 22.1161H28.5477C28.3568 22.1161 28.2007 22.2776 28.2007 22.475V24.6283C28.2007 24.8257 28.3568 24.9872 28.5477 24.9872H33.8401C34.0309 24.9872 34.1871 24.8257 34.1871 24.6283V22.475C34.1871 22.2776 34.0309 22.1161 33.8401 22.1161ZM19.3642 12H17.4859C17.2169 12 17 12.2243 17 12.5024V23.6279C17 23.7894 17.0737 23.9374 17.1995 24.0317L23.6588 28.9035C23.8757 29.065 24.1794 29.0202 24.3355 28.7959L25.4504 27.2213V27.2168C25.6066 26.9925 25.5588 26.6784 25.3419 26.5169L19.8457 22.4077V12.5024C19.8501 12.2243 19.6288 12 19.3642 12Z" fill="#31879C"/>
<path d="M33.578 27.7453H30.9295C30.6729 27.7453 30.43 27.8751 30.2926 28.0899C29.7106 28.9896 29.0325 29.8222 28.2535 30.5831C26.9109 31.8946 25.3484 32.9241 23.6118 33.6403C21.811 34.3833 19.9003 34.7593 17.93 34.7593C15.955 34.7593 14.0443 34.3833 12.2481 33.6403C10.5115 32.9241 8.94895 31.8946 7.60639 30.5831C6.26382 29.2716 5.20993 27.7453 4.47678 26.0488C3.71615 24.2942 3.33125 22.4276 3.33125 20.4984C3.33125 18.5692 3.71615 16.7072 4.47678 14.9481C5.20993 13.2516 6.26382 11.7253 7.60639 10.4138C8.94895 9.10229 10.5115 8.07279 12.2481 7.35661C14.0443 6.61358 15.9596 6.23759 17.93 6.23759C19.9049 6.23759 21.8156 6.61358 23.6118 7.35661C25.3484 8.07279 26.9109 9.10229 28.2535 10.4138C29.0325 11.1747 29.7106 12.0073 30.2926 12.907C30.43 13.1218 30.6729 13.2516 30.9295 13.2516H33.578C33.8941 13.2516 34.0957 12.9294 33.9537 12.6563C30.9661 6.85081 24.9086 3.07746 18.1453 3.00137C8.2433 2.88051 0.0183599 10.7987 3.13043e-05 20.4626C-0.0182973 30.1444 8.0142 38 17.9254 38C24.7757 38 30.9341 34.2132 33.9537 28.3406C34.0957 28.0675 33.8895 27.7453 33.578 27.7453Z" fill="#31879C"/>
</svg>
