<svg width="40" height="40" viewBox="0 0 40 40" fill="none" xmlns="http://www.w3.org/2000/svg">
<path d="M19.8762 19.1111C18.7557 19.1111 17.6811 18.666 16.8888 17.8737C16.0965 17.0814 15.6514 16.0068 15.6514 14.8863C15.6514 13.7658 16.0965 12.6911 16.8888 11.8988C17.6811 11.1065 18.7557 10.6614 19.8762 10.6614C20.997 10.6614 22.0719 11.1066 22.8644 11.8991C23.6569 12.6916 24.1021 13.7665 24.1021 14.8872C24.1021 16.008 23.6569 17.0829 22.8644 17.8754C22.0719 18.6679 20.997 19.1131 19.8762 19.1131V25.4494" stroke="#31879C" stroke-width="2.5" stroke-linecap="round" stroke-linejoin="round"/>
<path d="M36.7523 19.7885V9.51333C36.7523 8.72495 36.5042 7.95656 36.0432 7.31704C35.5821 6.67752 34.9315 6.19929 34.1835 5.95011L24.6206 2.76053C21.5389 1.74649 18.2134 1.74649 15.1317 2.76053L5.56879 5.94816C4.82113 6.19724 4.17076 6.67517 3.70975 7.3143C3.24874 7.95344 3.00044 8.72139 3 9.50944V19.7846C3.00035 22.321 3.64368 24.8158 4.86987 27.0361C6.09605 29.2564 7.86507 31.1296 10.0116 32.4806L17.8892 37.4314C18.4854 37.803 19.1737 38 19.8762 38C20.5786 38 21.267 37.803 21.8631 37.4314L29.7388 32.4806C31.8854 31.13 33.6546 29.2572 34.8811 27.0373C36.1077 24.8174 36.7515 22.3228 36.7523 19.7865" stroke="#31879C" stroke-width="2.5" stroke-linecap="round" stroke-linejoin="round"/>
</svg>
