<svg width="40" height="40" viewBox="0 0 40 40" fill="none" xmlns="http://www.w3.org/2000/svg">
<path d="M27.5 35H15V32.5H27.5V12.5H7.5V25H5V12.5C5 11.837 5.26339 11.2011 5.73223 10.7322C6.20107 10.2634 6.83696 10 7.5 10H27.5C28.163 10 28.7989 10.2634 29.2678 10.7322C29.7366 11.2011 30 11.837 30 12.5V32.5C30 33.163 29.7366 33.7989 29.2678 34.2678C28.7989 34.7366 28.163 35 27.5 35Z" fill="#31879C"/>
<path d="M35 27.5H32.5V25H35V5H15V7.5H12.5V5C12.5 4.33696 12.7634 3.70107 13.2322 3.23223C13.7011 2.76339 14.337 2.5 15 2.5H35C35.663 2.5 36.2989 2.76339 36.7678 3.23223C37.2366 3.70107 37.5 4.33696 37.5 5V25C37.5 25.663 37.2366 26.2989 36.7678 26.7678C36.2989 27.2366 35.663 27.5 35 27.5Z" fill="#31879C"/>
<path d="M12.5 17.5V20H18.2325L3.75 34.4825L5.5175 36.25L20 21.7675V27.5H22.5V17.5H12.5Z" fill="#31879C"/>
</svg>
