<svg width="40" height="40" viewBox="0 0 40 40" fill="none" xmlns="http://www.w3.org/2000/svg">
<path d="M5 20C5 26.285 5 32.7617 7.19667 34.7133C9.39333 36.6667 12.93 36.6667 20 36.6667C27.07 36.6667 30.6067 36.6667 32.8033 34.7133C35 32.76 35 26.285 35 20" stroke="#31879C" stroke-width="2.5"/>
<path d="M24.433 23.67L34.4463 20.6667C35.438 20.3684 35.9347 20.22 36.2497 19.8634C36.3114 19.7937 36.3671 19.719 36.4163 19.64C36.6663 19.235 36.6663 18.7184 36.6663 17.6817C36.6663 13.5984 36.6663 11.5567 35.5447 10.1784C35.3289 9.91317 35.0865 9.67079 34.8213 9.45504C33.443 8.33337 31.4013 8.33337 27.318 8.33337H12.683C8.59967 8.33337 6.55801 8.33337 5.17967 9.45504C4.91301 9.67171 4.6719 9.91282 4.45634 10.1784C3.33301 11.5567 3.33301 13.5984 3.33301 17.6817C3.33301 18.7184 3.33301 19.235 3.58301 19.64C3.63301 19.7178 3.68856 19.7923 3.74967 19.8634C4.06634 20.22 4.56134 20.3684 5.55301 20.6667L15.5663 23.67M10.833 8.33337C12.2047 8.30004 13.5997 7.42504 14.0663 6.13337L14.1247 5.96171L14.1663 5.83337C14.2363 5.62171 14.273 5.51671 14.3097 5.42337C14.5451 4.83806 14.9418 4.33158 15.4537 3.96279C15.9656 3.59401 16.5716 3.37806 17.2013 3.34004C17.2997 3.33337 17.413 3.33337 17.633 3.33337H22.363C22.5847 3.33337 22.6963 3.33337 22.7963 3.34004C23.4261 3.37806 24.0321 3.59401 24.544 3.96279C25.0559 4.33158 25.4526 4.83806 25.688 5.42337C25.7263 5.51671 25.7613 5.62337 25.8313 5.83337L25.8747 5.96171C25.9047 6.05004 25.918 6.09504 25.933 6.13337C26.3997 7.42504 27.793 8.30004 29.1647 8.33337" stroke="#31879C" stroke-width="2.5"/>
<path d="M23.333 20.8334H16.6663C16.4453 20.8334 16.2334 20.9212 16.0771 21.0775C15.9208 21.2337 15.833 21.4457 15.833 21.6667V25.27C15.833 25.4365 15.8829 25.5991 15.9762 25.7369C16.0695 25.8747 16.2019 25.9815 16.3563 26.0434L17.523 26.51C19.1128 27.1462 20.8865 27.1462 22.4763 26.51L23.643 26.0434C23.7975 25.9815 23.9299 25.8747 24.0232 25.7369C24.1164 25.5991 24.1663 25.4365 24.1663 25.27V21.6667C24.1663 21.4457 24.0785 21.2337 23.9223 21.0775C23.766 20.9212 23.554 20.8334 23.333 20.8334Z" stroke="#31879C" stroke-width="2.5" stroke-linecap="round"/>
</svg>
