<svg width="40" height="40" viewBox="0 0 40 40" fill="none" xmlns="http://www.w3.org/2000/svg">
<path d="M19.9996 2C13.9657 2 9.0431 6.92261 9.0431 12.9565C9.0431 16.6802 10.937 19.975 13.7873 21.9565C7.36205 24.464 2.78223 30.7249 2.78223 38H5.91266C5.91266 31.1162 10.9073 25.3624 17.4561 24.1572L18.4344 27.0435H21.5648L22.5431 24.1572C29.092 25.3624 34.0866 31.1162 34.0866 38H37.217C37.217 30.7249 32.6372 24.464 26.212 21.9565C29.0607 19.975 30.9561 16.6802 30.9561 12.9565C30.9561 6.92261 26.0335 2 19.9996 2ZM19.9996 5.13043C24.34 5.13043 27.8257 8.61617 27.8257 12.9565C27.8257 17.2969 24.34 20.7826 19.9996 20.7826C15.6593 20.7826 12.1735 17.2969 12.1735 12.9565C12.1735 8.61617 15.6593 5.13043 19.9996 5.13043ZM18.4344 28.6087L16.8692 38H23.1301L21.5648 28.6087H18.4344Z" fill="#31879C"/>
</svg>
