<svg width="40" height="40" viewBox="0 0 40 40" fill="none" xmlns="http://www.w3.org/2000/svg">
<path d="M10.1429 20H23M10.1429 25.1429H28.1429M10.1429 30.2857H17.8571M35.8571 32.8571V14.8571L23 2H10.1429C8.77889 2 7.47078 2.54183 6.50631 3.50631C5.54184 4.47078 5 5.77889 5 7.14286V32.8571C5 34.2211 5.54184 35.5292 6.50631 36.4937C7.47078 37.4582 8.77889 38 10.1429 38H30.7143C32.0783 38 33.3864 37.4582 34.3508 36.4937C35.3153 35.5292 35.8571 34.2211 35.8571 32.8571Z" stroke="#31879C" stroke-width="2.5" stroke-linecap="round" stroke-linejoin="round"/>
<path d="M23 2V9.71429C23 11.0783 23.5418 12.3864 24.5063 13.3508C25.4708 14.3153 26.7789 14.8571 28.1429 14.8571H35.8571" stroke="#31879C" stroke-width="2.5" stroke-linecap="round" stroke-linejoin="round"/>
</svg>
