<svg width="40" height="40" viewBox="0 0 40 40" fill="none" xmlns="http://www.w3.org/2000/svg">
<path d="M11.0002 3.04046C11.0002 1.06307 13.4526 0.312551 14.6387 1.73758C16.2334 3.65119 17.4277 4.76406 18.485 5.42908C19.011 5.76615 19.5847 6.02234 20.1869 6.18909C19.6745 6.9536 19.2681 7.78406 18.979 8.65778C18.2974 8.42495 17.6459 8.11196 17.0382 7.72541C15.9647 7.05089 14.8953 6.10223 13.7145 4.80885V9.76659C13.7145 10.0179 13.6447 10.2643 13.5129 10.4783C13.3811 10.6923 13.1925 10.8654 12.9681 10.9785C10.5007 12.2231 8.66314 14.1041 7.69683 16.7071C7.32361 17.7142 6.46995 18.5923 5.28786 18.8406C4.98457 18.9041 4.71236 19.07 4.5169 19.3105C4.32143 19.5509 4.21461 19.8513 4.21434 20.1611V22.5498C4.21434 23.1903 4.6622 23.7427 5.28786 23.8744C6.46995 24.1227 7.32361 25.0008 7.69683 26.0065C8.66314 28.6109 10.5007 30.4919 12.9681 31.7364C13.1925 31.8495 13.3811 32.0227 13.5129 32.2367C13.6447 32.4507 13.7145 32.6971 13.7145 32.9484V34.9285C13.7145 35.2884 13.8575 35.6336 14.112 35.8882C14.3665 36.1427 14.7117 36.2857 15.0717 36.2857H17.786C17.786 35.5658 18.072 34.8754 18.581 34.3663C19.0901 33.8573 19.7805 33.5713 20.5004 33.5713H25.929C26.6489 33.5713 27.3393 33.8573 27.8484 34.3663C28.3574 34.8754 28.6434 35.5658 28.6434 36.2857H31.3577C31.7177 36.2857 32.0629 36.1427 32.3174 35.8882C32.5719 35.6336 32.7149 35.2884 32.7149 34.9285V30.4838C32.7149 30.2973 32.7534 30.1129 32.8279 29.942C32.9024 29.771 33.0113 29.6173 33.1478 29.4903C35.4319 27.3664 36.7864 24.5597 36.7864 21.3568C36.7864 20.3539 36.6507 19.3848 36.3901 18.4593C37.1491 17.5697 37.7492 16.556 38.1639 15.4626C39.0514 17.3003 39.5085 19.3161 39.5007 21.3568C39.5007 25.1705 37.9576 28.5159 35.4292 31.0606V34.9285C35.4292 36.0083 35.0003 37.0439 34.2367 37.8075C33.4731 38.571 32.4375 39 31.3577 39H28.6434C27.9235 39 27.2331 38.714 26.724 38.205C26.215 37.696 25.929 37.0056 25.929 36.2857H20.5004C20.5004 37.0056 20.2144 37.696 19.7053 38.205C19.1963 38.714 18.5059 39 17.786 39H15.0717C13.9919 39 12.9563 38.571 12.1927 37.8075C11.4291 37.0439 11.0002 36.0083 11.0002 34.9285V33.7573C8.35506 32.2386 6.2813 29.9938 5.15214 26.9511C5.05442 26.6891 4.87121 26.5602 4.7287 26.5303C3.81567 26.3382 2.9965 25.8379 2.40863 25.1133C1.82075 24.3888 1.49993 23.4841 1.5 22.5511V20.1625C1.5 18.238 2.84767 16.5796 4.73006 16.1833C4.87256 16.1534 5.05578 16.0258 5.15214 15.7626C6.2813 12.7198 8.35506 10.475 11.0002 8.95636V3.04046ZM28.6434 6.42795C27.9202 6.42795 27.2043 6.57244 26.5377 6.85295C25.8712 7.13345 25.2673 7.54431 24.7618 8.0614C24.2562 8.57849 23.859 9.19138 23.5936 9.86409C23.3281 10.5368 23.1998 11.2558 23.2161 11.9788C23.2201 12.1661 23.3748 12.4809 23.8499 12.6723L31.5233 15.7734C31.9983 15.9661 32.3294 15.8467 32.4638 15.7137C33.2283 14.9566 33.7505 13.9893 33.9642 12.9348C34.1779 11.8803 34.0734 10.7861 33.664 9.7911C33.2546 8.79609 32.5588 7.94516 31.6649 7.34636C30.771 6.74756 29.7193 6.4279 28.6434 6.42795ZM20.5004 11.8566C20.5003 10.5158 20.8314 9.19575 21.4641 8.01363C22.0968 6.83151 23.0117 5.82392 24.1274 5.08033C25.2431 4.33675 26.5252 3.88017 27.8598 3.75116C29.1944 3.62214 30.5402 3.82467 31.7777 4.34076C33.0152 4.85685 34.1061 5.67053 34.9536 6.70956C35.801 7.74858 36.3788 8.98079 36.6356 10.2968C36.8924 11.6128 36.8203 12.9718 36.4256 14.2532C36.031 15.5346 35.326 16.6988 34.3733 17.6422C33.2523 18.7538 31.6699 18.7605 30.5068 18.2896L22.8333 15.1898C21.6689 14.7189 20.537 13.6155 20.5017 12.0371L20.5004 11.8566ZM13.0359 18.6425C13.5758 18.6425 14.0936 18.428 14.4754 18.0462C14.8572 17.6644 15.0717 17.1466 15.0717 16.6067C15.0717 16.0668 14.8572 15.549 14.4754 15.1672C14.0936 14.7854 13.5758 14.571 13.0359 14.571C12.496 14.571 11.9782 14.7854 11.5964 15.1672C11.2147 15.549 11.0002 16.0668 11.0002 16.6067C11.0002 17.1466 11.2147 17.6644 11.5964 18.0462C11.9782 18.428 12.496 18.6425 13.0359 18.6425Z" fill="#31879C"/>
</svg>
