<svg width="60" height="60" viewBox="0 0 60 60" fill="none" xmlns="http://www.w3.org/2000/svg">
<path d="M10.795 51.34C14.09 55 19.395 55 30 55C40.605 55 45.91 55 49.205 51.3375C52.5 47.68 52.5 41.785 52.5 30C52.5 18.215 52.5 12.3225 49.205 8.66C45.91 4.9975 40.605 5 30 5C19.395 5 14.09 5 10.795 8.66C7.5 12.325 7.5 18.215 7.5 30C7.5 41.785 7.5 47.68 10.795 51.34Z" stroke="white" stroke-width="2.5"/>
<path d="M17.5 20C17.5 18.8375 17.5 18.2575 17.6275 17.78C17.798 17.1447 18.1326 16.5654 18.5977 16.1002C19.0629 15.6351 19.6422 15.3005 20.2775 15.13C20.76 15 21.34 15 22.5 15H37.5C38.6625 15 39.2425 15 39.72 15.1275C40.3553 15.298 40.9346 15.6326 41.3998 16.0977C41.8649 16.5629 42.1995 17.1422 42.37 17.7775C42.5 18.26 42.5 18.84 42.5 20C42.5 21.16 42.5 21.7425 42.3725 22.22C42.202 22.8553 41.8674 23.4346 41.4023 23.8998C40.9371 24.3649 40.3578 24.6995 39.7225 24.87C39.2425 25 38.66 25 37.5 25H22.5C21.3375 25 20.7575 25 20.28 24.8725C19.6447 24.702 19.0654 24.3674 18.6002 23.9023C18.1351 23.4371 17.8005 22.8578 17.63 22.2225C17.5 21.74 17.5 21.16 17.5 20Z" stroke="white" stroke-width="2.5"/>
<path d="M20 35C21.3807 35 22.5 33.8807 22.5 32.5C22.5 31.1193 21.3807 30 20 30C18.6193 30 17.5 31.1193 17.5 32.5C17.5 33.8807 18.6193 35 20 35Z" fill="white"/>
<path d="M20 45C21.3807 45 22.5 43.8807 22.5 42.5C22.5 41.1193 21.3807 40 20 40C18.6193 40 17.5 41.1193 17.5 42.5C17.5 43.8807 18.6193 45 20 45Z" fill="white"/>
<path d="M30 35C31.3807 35 32.5 33.8807 32.5 32.5C32.5 31.1193 31.3807 30 30 30C28.6193 30 27.5 31.1193 27.5 32.5C27.5 33.8807 28.6193 35 30 35Z" fill="white"/>
<path d="M30 45C31.3807 45 32.5 43.8807 32.5 42.5C32.5 41.1193 31.3807 40 30 40C28.6193 40 27.5 41.1193 27.5 42.5C27.5 43.8807 28.6193 45 30 45Z" fill="white"/>
<path d="M40 35C41.3807 35 42.5 33.8807 42.5 32.5C42.5 31.1193 41.3807 30 40 30C38.6193 30 37.5 31.1193 37.5 32.5C37.5 33.8807 38.6193 35 40 35Z" fill="white"/>
<path d="M40 45C41.3807 45 42.5 43.8807 42.5 42.5C42.5 41.1193 41.3807 40 40 40C38.6193 40 37.5 41.1193 37.5 42.5C37.5 43.8807 38.6193 45 40 45Z" fill="white"/>
</svg>
