<svg width="34" height="34" viewBox="0 0 34 34" fill="none" xmlns="http://www.w3.org/2000/svg">
<path d="M14.2002 21.8308C14.2005 21.2703 14.3436 20.7202 14.6146 20.2378C14.8856 19.7554 15.2745 19.3584 15.7409 19.0882C16.2073 18.818 16.734 18.6845 17.2661 18.7017C17.7982 18.7188 18.3162 18.8859 18.766 19.1856C19.2159 19.4853 19.5811 19.9066 19.8236 20.4055C20.0661 20.9044 20.177 21.4627 20.1447 22.0222C20.1125 22.5816 19.9382 23.1216 19.6402 23.586C19.3421 24.0504 18.9312 24.4221 18.4502 24.6623V25.8578C18.4502 26.2139 18.3159 26.5553 18.0768 26.807C17.8376 27.0588 17.5133 27.2002 17.1752 27.2002C16.837 27.2002 16.5127 27.0588 16.2736 26.807C16.0345 26.5553 15.9002 26.2139 15.9002 25.8578V24.6623C15.3913 24.4081 14.9614 24.0071 14.6605 23.5059C14.3595 23.0047 14.1999 22.4238 14.2002 21.8308Z" fill="#31879C"/>
<path d="M9.1 8.71805C9.1 6.63134 9.95076 4.63009 11.4651 3.15457C12.9795 1.67904 15.0334 0.850098 17.175 0.850098C19.3166 0.850098 21.3705 1.67904 22.8849 3.15457C24.3992 4.63009 25.25 6.63134 25.25 8.71805V12.6205C25.828 12.7166 26.3618 12.869 26.8701 13.1224C28.0689 13.7178 29.0436 14.6676 29.6547 15.8356C30.0406 16.5727 30.2004 17.3678 30.2769 18.2722C30.35 19.1518 30.35 20.2384 30.35 21.585V24.01C30.35 25.3567 30.35 26.4433 30.2769 27.3228C30.2004 28.2272 30.0389 29.0223 29.6547 29.7578C29.0438 30.9273 28.0684 31.8783 26.8684 32.4743C26.1136 32.8486 25.2976 33.0043 24.3694 33.0789C23.4667 33.1501 22.3515 33.1501 20.9694 33.1501H13.3806C11.9985 33.1501 10.8833 33.1501 9.9806 33.0789C9.0524 33.0043 8.2364 32.847 7.4816 32.4726C6.28127 31.8774 5.30527 30.927 4.6936 29.7578C4.3094 29.0223 4.1496 28.2272 4.0731 27.3228C4 26.4433 4 25.3567 4 24.01V21.585C4 20.2384 4 19.1518 4.0731 18.2722C4.1496 17.3678 4.3111 16.5727 4.6953 15.8373C5.30623 14.6677 6.28164 13.7168 7.4816 13.1208C7.9919 12.875 8.53761 12.7063 9.1 12.6205V8.71805ZM22.7 8.71805C22.7 7.2903 22.1179 5.92103 21.0818 4.91145C20.0456 3.90188 18.6403 3.33471 17.175 3.33471C15.7097 3.33471 14.3044 3.90188 13.2682 4.91145C12.2321 5.92103 11.65 7.2903 11.65 8.71805V12.4516C12.1747 12.4461 12.7516 12.4439 13.3806 12.445H20.9694C21.5995 12.4439 22.1764 12.4461 22.7 12.4516V8.71805ZM10.188 14.9925C9.4179 15.0538 8.9742 15.1698 8.6393 15.3354C7.91894 15.6928 7.33333 16.2634 6.9665 16.9653C6.7965 17.2916 6.6775 17.7239 6.6146 18.476C6.5517 19.2412 6.55 20.2251 6.55 21.638V23.957C6.55 25.3683 6.55 26.3538 6.6146 27.1208C6.6775 27.8711 6.7965 28.3034 6.9665 28.6314C7.3337 29.3321 7.9185 29.9019 8.6393 30.2597C8.9742 30.4253 9.4179 30.5413 10.1897 30.6025C10.9751 30.6638 11.9866 30.6655 13.435 30.6655H20.915C22.3651 30.6655 23.3749 30.6655 24.162 30.6025C24.9321 30.5396 25.3758 30.4253 25.7124 30.2597C26.4315 29.9019 27.0163 29.3321 27.3835 28.6314C27.5535 28.3034 27.6725 27.8711 27.7354 27.1191C27.7983 26.3538 27.8 25.3683 27.8 23.957V21.638C27.8 20.2251 27.8 19.2412 27.7354 18.4743C27.6708 17.7239 27.5535 17.2916 27.3835 16.9637C27.0168 16.2626 26.4319 15.6927 25.7124 15.3354C25.3758 15.1698 24.9321 15.0538 24.1603 14.9925C23.3749 14.9312 22.3634 14.9296 20.915 14.9296H13.435C11.9866 14.9296 10.9751 14.9296 10.188 14.9925Z" fill="#31879C"/>
</svg>
