<svg width="34" height="34" viewBox="0 0 34 34" fill="none" xmlns="http://www.w3.org/2000/svg">
<path d="M4.25 15.5834L7.76333 7.38375C7.98196 6.87375 8.34552 6.43917 8.80891 6.13394C9.2723 5.8287 9.81512 5.66626 10.37 5.66675H23.6328C24.1872 5.66681 24.7294 5.82952 25.1923 6.13472C25.6551 6.43992 26.0182 6.87419 26.2367 7.38375L29.75 15.5834M4.25 15.5834H29.75M4.25 15.5834V25.5001M29.75 15.5834V25.5001M4.25 25.5001V26.2084C4.25 26.772 4.47388 27.3125 4.8724 27.711C5.27091 28.1095 5.81141 28.3334 6.375 28.3334C6.93858 28.3334 7.47909 28.1095 7.8776 27.711C8.27612 27.3125 8.5 26.772 8.5 26.2084V25.5001M4.25 25.5001H8.5M29.75 25.5001V26.2084C29.75 26.772 29.5261 27.3125 29.1276 27.711C28.7291 28.1095 28.1886 28.3334 27.625 28.3334C27.0614 28.3334 26.5209 28.1095 26.1224 27.711C25.7239 27.3125 25.5 26.772 25.5 26.2084V25.5001M29.75 25.5001H25.5M25.5 25.5001H8.5" stroke="#31879C" stroke-width="2.5" stroke-linecap="round" stroke-linejoin="round"/>
</svg>
