<svg width="34" height="34" viewBox="0 0 34 34" fill="none" xmlns="http://www.w3.org/2000/svg">
<path d="M33.7052 13.6127H24.2658C24.1035 13.6127 23.9708 13.75 23.9708 13.9178V15.7481C23.9708 15.9159 24.1035 16.0532 24.2658 16.0532H33.7052C33.8675 16.0532 34.0002 15.9159 34.0002 15.7481V13.9178C34.0002 13.75 33.8675 13.6127 33.7052 13.6127ZM28.7642 18.7986H24.2658C24.1035 18.7986 23.9708 18.9359 23.9708 19.1037V20.934C23.9708 21.1018 24.1035 21.2391 24.2658 21.2391H28.7642C28.9265 21.2391 29.0592 21.1018 29.0592 20.934V19.1037C29.0592 18.9359 28.9265 18.7986 28.7642 18.7986ZM16.4598 10.2H14.8632C14.6346 10.2 14.4502 10.3906 14.4502 10.627V20.0837C14.4502 20.2209 14.5129 20.3468 14.6198 20.4269L20.1102 24.568C20.2945 24.7052 20.5527 24.6671 20.6854 24.4764L21.633 23.138V23.1342C21.7658 22.9435 21.7252 22.6766 21.5408 22.5393L16.8691 19.0465V10.627C16.8727 10.3906 16.6847 10.2 16.4598 10.2Z" fill="#31879C"/>
<path d="M28.5413 23.5835H26.2901C26.072 23.5835 25.8655 23.6938 25.7487 23.8765C25.254 24.6412 24.6776 25.3489 24.0155 25.9957C22.8743 27.1105 21.5462 27.9855 20.07 28.5943C18.5394 29.2259 16.9152 29.5455 15.2405 29.5455C13.5618 29.5455 11.9377 29.2259 10.4109 28.5943C8.93474 27.9855 7.60661 27.1105 6.46543 25.9957C5.32425 24.8809 4.42844 23.5835 3.80527 22.1415C3.15873 20.6501 2.83156 19.0635 2.83156 17.4237C2.83156 15.7839 3.15873 14.2012 3.80527 12.7059C4.42844 11.2639 5.32425 9.96654 6.46543 8.85177C7.60661 7.737 8.93474 6.86192 10.4109 6.25317C11.9377 5.62159 13.5657 5.302 15.2405 5.302C16.9191 5.302 18.5433 5.62159 20.07 6.25317C21.5462 6.86192 22.8743 7.737 24.0155 8.85177C24.6776 9.49857 25.254 10.2062 25.7487 10.971C25.8655 11.1536 26.072 11.2639 26.2901 11.2639H28.5413C28.81 11.2639 28.9814 10.99 28.8606 10.7579C26.3212 5.82324 21.1723 2.61589 15.4235 2.55121C7.00681 2.44848 0.0156059 9.17897 2.66087e-05 17.3933C-0.0155527 25.6228 6.81207 32.3 15.2366 32.3C21.0593 32.3 26.294 29.0813 28.8606 24.0895C28.9814 23.8575 28.8061 23.5835 28.5413 23.5835Z" fill="#31879C"/>
</svg>
