<svg width="34" height="34" viewBox="0 0 34 34" fill="none" xmlns="http://www.w3.org/2000/svg">
<path d="M12.75 9.40525V29.0417M21.25 4.25V24.0833M4.25 12.3392C4.25 10.251 4.25 9.20833 4.80675 8.59917C5.00379 8.38246 5.2435 8.20883 5.51083 8.08917C6.2645 7.75483 7.25475 8.08492 9.23525 8.74508C10.7468 9.24942 11.5019 9.50158 12.2669 9.47467C12.5476 9.46544 12.8266 9.42843 13.0999 9.36417C13.8437 9.18708 14.5067 8.74508 15.8327 7.8625L17.7905 6.55633C19.4905 5.423 20.3391 4.85633 21.3137 4.72742C22.2884 4.59567 23.2574 4.91867 25.194 5.56467L26.8444 6.11433C28.2469 6.58183 28.9482 6.81558 29.3491 7.37233C29.75 7.92908 29.75 8.67 29.75 10.1462V21.6623C29.75 23.749 29.75 24.7931 29.1932 25.4022C28.9959 25.6179 28.7562 25.7906 28.4892 25.9094C27.7355 26.2452 26.7453 25.9151 24.7648 25.2549C23.2532 24.7506 22.4981 24.4984 21.7331 24.5253C21.4524 24.5346 21.1734 24.5716 20.9001 24.6358C20.1563 24.8129 19.4933 25.2549 18.1673 26.1375L16.2095 27.4437C14.5095 28.577 13.6609 29.1437 12.6862 29.2726C11.7116 29.4043 10.7426 29.0813 8.806 28.4353L7.15558 27.8857C5.75308 27.4182 5.05183 27.1844 4.65092 26.6277C4.25 26.0709 4.25 25.33 4.25 23.8538V12.3392Z" stroke="#31879C" stroke-width="2.5"/>
</svg>
