<svg width="62" height="57" viewBox="0 0 62 57" fill="none" xmlns="http://www.w3.org/2000/svg">
<path d="M60.5 44.5251L14.2143 44.5251C12.6384 44.5251 11.078 44.2512 9.62208 43.7191C8.16618 43.187 6.8433 42.407 5.729 41.4237C4.6147 40.4405 3.73079 39.2732 3.12773 37.9885C2.52467 36.7038 2.21428 35.3269 2.21428 33.9363C2.21428 32.5458 2.52468 31.1689 3.12773 29.8842C3.73079 28.5995 4.6147 27.4322 5.729 26.4489C6.8433 25.4656 8.16618 24.6857 9.62208 24.1535C11.078 23.6214 12.6384 23.3475 14.2143 23.3475L45.0714 23.3475C48.254 23.3475 51.3063 22.2319 53.5567 20.2461C55.8071 18.2603 57.0714 15.567 57.0714 12.7587C57.0714 9.9504 55.8071 7.2571 53.5567 5.27131C51.3063 3.28552 48.254 2.16992 45.0714 2.16992L3.92857 2.16992M60.5 44.5251L48.5 55.1139M60.5 44.5251L48.5 33.9363" stroke="#3CA1B1" stroke-width="3" stroke-linecap="round" stroke-linejoin="round"/>
</svg>
