<svg width="60" height="60" viewBox="0 0 60 60" fill="none" xmlns="http://www.w3.org/2000/svg">
<g clip-path="url(#clip0_325_295)">
<path d="M39.375 7.5C38.8777 7.5 38.4008 7.69754 38.0492 8.04918C37.6975 8.40081 37.5 8.87772 37.5 9.375V13.125C37.5 13.6223 37.6975 14.0992 38.0492 14.4508C38.4008 14.8025 38.8777 15 39.375 15C39.8723 15 40.3492 14.8025 40.7008 14.4508C41.0525 14.0992 41.25 13.6223 41.25 13.125V9.375C41.25 8.87772 41.0525 8.40081 40.7008 8.04918C40.3492 7.69754 39.8723 7.5 39.375 7.5ZM30 9.375C30 8.87772 30.1975 8.40081 30.5492 8.04918C30.9008 7.69754 31.3777 7.5 31.875 7.5C32.3723 7.5 32.8492 7.69754 33.2008 8.04918C33.5525 8.40081 33.75 8.87772 33.75 9.375V13.125C33.75 13.6223 33.5525 14.0992 33.2008 14.4508C32.8492 14.8025 32.3723 15 31.875 15C31.3777 15 30.9008 14.8025 30.5492 14.4508C30.1975 14.0992 30 13.6223 30 13.125V9.375ZM46.875 7.5C46.3777 7.5 45.9008 7.69754 45.5492 8.04918C45.1975 8.40081 45 8.87772 45 9.375V13.125C45 13.6223 45.1975 14.0992 45.5492 14.4508C45.9008 14.8025 46.3777 15 46.875 15C47.3723 15 47.8492 14.8025 48.2008 14.4508C48.5525 14.0992 48.75 13.6223 48.75 13.125V9.375C48.75 8.87772 48.5525 8.40081 48.2008 8.04918C47.8492 7.69754 47.3723 7.5 46.875 7.5ZM37.5 28.125C37.5 27.6277 37.6975 27.1508 38.0492 26.7992C38.4008 26.4475 38.8777 26.25 39.375 26.25C39.8723 26.25 40.3492 26.4475 40.7008 26.7992C41.0525 27.1508 41.25 27.6277 41.25 28.125V31.875C41.25 32.3723 41.0525 32.8492 40.7008 33.2008C40.3492 33.5525 39.8723 33.75 39.375 33.75C38.8777 33.75 38.4008 33.5525 38.0492 33.2008C37.6975 32.8492 37.5 32.3723 37.5 31.875V28.125ZM31.875 26.25C31.3777 26.25 30.9008 26.4475 30.5492 26.7992C30.1975 27.1508 30 27.6277 30 28.125V31.875C30 32.3723 30.1975 32.8492 30.5492 33.2008C30.9008 33.5525 31.3777 33.75 31.875 33.75C32.3723 33.75 32.8492 33.5525 33.2008 33.2008C33.5525 32.8492 33.75 32.3723 33.75 31.875V28.125C33.75 27.6277 33.5525 27.1508 33.2008 26.7992C32.8492 26.4475 32.3723 26.25 31.875 26.25ZM45 28.125C45 27.6277 45.1975 27.1508 45.5492 26.7992C45.9008 26.4475 46.3777 26.25 46.875 26.25C47.3723 26.25 47.8492 26.4475 48.2008 26.7992C48.5525 27.1508 48.75 27.6277 48.75 28.125V31.875C48.75 32.3723 48.5525 32.8492 48.2008 33.2008C47.8492 33.5525 47.3723 33.75 46.875 33.75C46.3777 33.75 45.9008 33.5525 45.5492 33.2008C45.1975 32.8492 45 32.3723 45 31.875V28.125ZM39.375 45C38.8777 45 38.4008 45.1975 38.0492 45.5492C37.6975 45.9008 37.5 46.3777 37.5 46.875V50.625C37.5 51.1223 37.6975 51.5992 38.0492 51.9508C38.4008 52.3025 38.8777 52.5 39.375 52.5C39.8723 52.5 40.3492 52.3025 40.7008 51.9508C41.0525 51.5992 41.25 51.1223 41.25 50.625V46.875C41.25 46.3777 41.0525 45.9008 40.7008 45.5492C40.3492 45.1975 39.8723 45 39.375 45ZM30 46.875C30 46.3777 30.1975 45.9008 30.5492 45.5492C30.9008 45.1975 31.3777 45 31.875 45C32.3723 45 32.8492 45.1975 33.2008 45.5492C33.5525 45.9008 33.75 46.3777 33.75 46.875V50.625C33.75 51.1223 33.5525 51.5992 33.2008 51.9508C32.8492 52.3025 32.3723 52.5 31.875 52.5C31.3777 52.5 30.9008 52.3025 30.5492 51.9508C30.1975 51.5992 30 51.1223 30 50.625V46.875ZM46.875 45C46.3777 45 45.9008 45.1975 45.5492 45.5492C45.1975 45.9008 45 46.3777 45 46.875V50.625C45 51.1223 45.1975 51.5992 45.5492 51.9508C45.9008 52.3025 46.3777 52.5 46.875 52.5C47.3723 52.5 47.8492 52.3025 48.2008 51.9508C48.5525 51.5992 48.75 51.1223 48.75 50.625V46.875C48.75 46.3777 48.5525 45.9008 48.2008 45.5492C47.8492 45.1975 47.3723 45 46.875 45Z" fill="#75C998"/>
<path fill-rule="evenodd" clip-rule="evenodd" d="M3.75016 20.6249C1.79987 19.1615 0.496449 16.9959 0.116406 14.5874C0.00390625 13.8599 0.00390625 12.9862 0.00390625 11.2462C0.00390625 9.50618 0.00390625 8.63243 0.116406 7.90493C0.425166 5.94724 1.3464 4.13775 2.74781 2.73634C4.14922 1.33493 5.95871 0.413691 7.91641 0.104932C8.64391 -0.00756835 9.51766 -0.00756836 11.2577 -0.00756836H48.7577C50.4977 -0.00756836 51.3714 -0.00756835 52.0989 0.104932C54.0566 0.413691 55.8661 1.33493 57.2675 2.73634C58.6689 4.13775 59.5901 5.94724 59.8989 7.90493C60.0114 8.63243 60.0114 9.50618 60.0114 11.2462C60.0114 12.9862 60.0114 13.8599 59.8989 14.5874C59.5189 16.9959 58.2154 19.1615 56.2652 20.6249C58.1702 22.0537 59.5089 24.1949 59.8989 26.6624C60.0114 27.3899 60.0114 28.2637 60.0114 30.0037C60.0114 31.7437 60.0114 32.6174 59.8989 33.3449C59.5189 35.7534 58.2154 37.919 56.2652 39.3824C58.1702 40.8112 59.5089 42.9524 59.8989 45.4199C60.0114 46.1474 60.0114 47.0212 60.0114 48.7612C60.0114 50.5012 60.0114 51.3749 59.8989 52.1024C59.5901 54.0601 58.6689 55.8696 57.2675 57.271C55.8661 58.6724 54.0566 59.5937 52.0989 59.9024C51.3714 60.0149 50.4977 60.0149 48.7577 60.0149H11.2577C9.51766 60.0149 8.64391 60.0149 7.91641 59.9024C5.95871 59.5937 4.14922 58.6724 2.74781 57.271C1.3464 55.8696 0.425166 54.0601 0.116406 52.1024C0.00390625 51.3749 0.00390625 50.5012 0.00390625 48.7612C0.00390625 47.0212 0.00390625 46.1474 0.116406 45.4199C0.506406 42.9562 1.84516 40.8074 3.75016 39.3824C1.79987 37.919 0.496449 35.7534 0.116406 33.3449C0.00390625 32.6174 0.00390625 31.7437 0.00390625 30.0037C0.00390625 28.2637 0.00390625 27.3899 0.116406 26.6624C0.506406 24.1987 1.84516 22.0499 3.75016 20.6249ZM11.2502 3.74993H48.7502C50.6364 3.74993 51.1427 3.76118 51.5064 3.82118C53.9139 4.20368 55.8189 6.08993 56.1939 8.50868C56.2502 8.86868 56.2652 9.37493 56.2652 11.2612C56.2652 13.1474 56.2502 13.6537 56.1939 14.0174C56.0097 15.1945 55.4565 16.2826 54.614 17.1251C53.7716 17.9675 52.6835 18.5207 51.5064 18.7049C51.1427 18.7649 50.6364 18.7762 48.7502 18.7762H11.2502C9.36391 18.7762 8.85766 18.7649 8.49391 18.7087C7.31686 18.5244 6.2287 17.9713 5.38627 17.1288C4.54384 16.2864 3.99064 15.1982 3.80641 14.0212C3.75016 13.6574 3.73891 13.1512 3.73891 11.2649C3.73891 9.37868 3.75016 8.87243 3.80641 8.50868C3.99064 7.33163 4.54384 6.24348 5.38627 5.40104C6.2287 4.55861 7.31686 4.00541 8.49391 3.82118C8.85766 3.76118 9.36391 3.74993 11.2502 3.74993ZM51.3752 37.4249C51.0114 37.4812 50.5052 37.4962 48.6189 37.4962H11.1189C9.23266 37.4962 8.72641 37.4812 8.36266 37.4249C7.18561 37.2407 6.09745 36.6875 5.25502 35.8451C4.41259 35.0026 3.85939 33.9145 3.67516 32.7374C3.61891 32.3737 3.60766 31.8674 3.60766 29.9812C3.60766 28.0949 3.61891 27.5887 3.67516 27.2249C3.85939 26.0479 4.41259 24.9597 5.25502 24.1173C6.09745 23.2749 7.18561 22.7217 8.36266 22.5374C8.72641 22.4812 9.23266 22.4699 11.1189 22.4699H48.6189C50.5052 22.4699 51.0114 22.4812 51.3752 22.5374C53.7827 22.9199 55.6877 24.8062 56.0627 27.2249C56.1189 27.5887 56.1339 28.0949 56.1339 29.9812C56.1339 31.8674 56.1189 32.3737 56.0627 32.7374C55.8784 33.9145 55.3252 35.0026 54.4828 35.8451C53.6404 36.6875 52.5522 37.2407 51.3752 37.4249ZM8.25016 41.3249C8.61391 41.2687 9.12016 41.2574 11.0064 41.2574H48.5064C50.3927 41.2574 50.8989 41.2687 51.2627 41.3249C53.6702 41.7074 55.5752 43.5937 55.9502 46.0124C56.0064 46.3762 56.0177 46.8824 56.0177 48.7687C56.0177 50.6549 56.0064 51.1612 55.9502 51.5249C55.7659 52.702 55.2127 53.7901 54.3703 54.6326C53.5279 55.475 52.4397 56.0282 51.2627 56.2124C50.8989 56.2687 50.3927 56.2799 48.5064 56.2799H11.0064C9.12016 56.2799 8.61391 56.2687 8.25016 56.2124C7.07311 56.0282 5.98495 55.475 5.14252 54.6326C4.30009 53.7901 3.74689 52.702 3.56266 51.5249C3.50641 51.1612 3.49141 50.6549 3.49141 48.7687C3.49141 46.8824 3.50641 46.3762 3.56266 46.0124C3.74689 44.8354 4.30009 43.7472 5.14252 42.9048C5.98495 42.0624 7.07311 41.5092 8.25016 41.3249Z" fill="#75C998"/>
</g>
<defs>
<clipPath id="clip0_325_295">
<rect width="60" height="60" fill="white"/>
</clipPath>
</defs>
</svg>
