<svg width="60" height="60" viewBox="0 0 60 60" fill="none" xmlns="http://www.w3.org/2000/svg">
<path d="M51.7778 23.6667V8.11111C51.7778 7.28599 51.45 6.49467 50.8666 5.91122C50.2831 5.32778 49.4918 5 48.6667 5H11.3333C10.5082 5 9.71689 5.32778 9.13345 5.91122C8.55 6.49467 8.22222 7.28599 8.22222 8.11111V23.6667M54.8889 23.6667H5.11111C4.28599 23.6667 3.49467 23.9944 2.91122 24.5779C2.32778 25.1613 2 25.9527 2 26.7778V51.6667C2 52.4918 2.32778 53.2831 2.91122 53.8666C3.49467 54.45 4.28599 54.7778 5.11111 54.7778H54.8889C55.714 54.7778 56.5053 54.45 57.0888 53.8666C57.6722 53.2831 58 52.4918 58 51.6667V26.7778C58 25.9527 57.6722 25.1613 57.0888 24.5779C56.5053 23.9944 55.714 23.6667 54.8889 23.6667Z" stroke="#75C998" stroke-width="3.5" stroke-linecap="round" stroke-linejoin="round"/>
<path d="M47.1108 54.7778V45.4444C47.1108 44.6193 46.783 43.828 46.1996 43.2446C45.6161 42.6611 44.8248 42.3333 43.9997 42.3333H26.8886C26.0634 42.3333 25.2721 42.6611 24.6887 43.2446C24.1052 43.828 23.7775 44.6193 23.7775 45.4444V54.7778M11.333 33H17.5552" stroke="#75C998" stroke-width="3.5" stroke-linecap="round" stroke-linejoin="round"/>
</svg>
