<svg width="60" height="60" viewBox="0 0 60 60" fill="none" xmlns="http://www.w3.org/2000/svg">
<g clip-path="url(#clip0_325_262)">
<path d="M52.5 3.75H7.5C6.50544 3.75 5.55161 4.14509 4.84835 4.84835C4.14509 5.55161 3.75 6.50544 3.75 7.5V33.75C3.75 34.7446 4.14509 35.6984 4.84835 36.4016C5.55161 37.1049 6.50544 37.5 7.5 37.5H26.25V52.5H16.875C16.3777 52.5 15.9008 52.3025 15.5492 51.9508C15.1975 51.5992 15 51.1223 15 50.625C15 50.1277 15.1975 49.6508 15.5492 49.2992C15.9008 48.9475 16.3777 48.75 16.875 48.75H22.5V41.25H7.5C3.375 41.25 0 37.8937 0 33.75V7.5C0 3.375 3.35625 0 7.5 0H52.5C56.625 0 60 3.35625 60 7.5H56.25C56.25 6.50544 55.8549 5.55161 55.1516 4.84835C54.4484 4.14509 53.4946 3.75 52.5 3.75Z" fill="#75C998"/>
<path d="M43.125 22.5C42.6277 22.5 42.1508 22.6975 41.7992 23.0492C41.4475 23.4008 41.25 23.8777 41.25 24.375C41.25 24.8723 41.4475 25.3492 41.7992 25.7008C42.1508 26.0525 42.6277 26.25 43.125 26.25H50.625C51.1223 26.25 51.5992 26.0525 51.9508 25.7008C52.3025 25.3492 52.5 24.8723 52.5 24.375C52.5 23.8777 52.3025 23.4008 51.9508 23.0492C51.5992 22.6975 51.1223 22.5 50.625 22.5H43.125ZM43.125 30C42.6277 30 42.1508 30.1975 41.7992 30.5492C41.4475 30.9008 41.25 31.3777 41.25 31.875C41.25 32.3723 41.4475 32.8492 41.7992 33.2008C42.1508 33.5525 42.6277 33.75 43.125 33.75H50.625C51.1223 33.75 51.5992 33.5525 51.9508 33.2008C52.3025 32.8492 52.5 32.3723 52.5 31.875C52.5 31.3777 52.3025 30.9008 51.9508 30.5492C51.5992 30.1975 51.1223 30 50.625 30H43.125ZM50.625 52.5C51.1223 52.5 51.5992 52.3025 51.9508 51.9508C52.3025 51.5992 52.5 51.1223 52.5 50.625C52.5 50.1277 52.3025 49.6508 51.9508 49.2992C51.5992 48.9475 51.1223 48.75 50.625 48.75C50.1277 48.75 49.6508 48.9475 49.2992 49.2992C48.9475 49.6508 48.75 50.1277 48.75 50.625C48.75 51.1223 48.9475 51.5992 49.2992 51.9508C49.6508 52.3025 50.1277 52.5 50.625 52.5Z" fill="#75C998"/>
<path fill-rule="evenodd" clip-rule="evenodd" d="M33.75 23.9999C33.75 20.8499 33.75 19.2749 34.3613 18.0749C34.9013 17.0174 35.76 16.1549 36.8213 15.6149C38.025 15.0037 39.6 15.0037 42.7463 15.0037H50.9963C54.1462 15.0037 55.7213 15.0037 56.9212 15.6149C57.9788 16.1549 58.8412 17.0137 59.3813 18.0749C59.9963 19.2787 59.9962 20.8537 59.9962 23.9999V50.9999C59.9962 54.1499 59.9963 55.7249 59.3813 56.9249C58.8418 57.9843 57.9806 58.8455 56.9212 59.3849C55.7175 59.9999 54.1425 59.9999 50.9963 59.9999H42.7463C39.5963 59.9999 38.0213 59.9999 36.8213 59.3849C35.7619 58.8455 34.9007 57.9843 34.3613 56.9249C33.75 55.7212 33.75 54.1462 33.75 50.9999V23.9999ZM42.75 18.7499H51C52.635 18.7499 53.64 18.7499 54.39 18.8137C54.6631 18.8333 54.9341 18.876 55.2 18.9412L55.23 18.9524C55.5818 19.132 55.8679 19.4181 56.0475 19.7699V19.7812L56.0588 19.7999L56.0925 19.9199C56.1225 20.0474 56.1562 20.2574 56.1862 20.6099C56.2463 21.3599 56.25 22.3612 56.25 23.9999V50.9999C56.25 52.6349 56.25 53.6399 56.1862 54.3899C56.1666 54.663 56.1239 54.934 56.0588 55.1999L56.0512 55.2149L56.0475 55.2262C55.8679 55.578 55.5818 55.8641 55.23 56.0437L55.215 56.0512L55.2 56.0587L55.08 56.0924C54.8534 56.145 54.6224 56.1764 54.39 56.1862C53.64 56.2462 52.6388 56.2499 51 56.2499H42.75C41.115 56.2499 40.11 56.2499 39.36 56.1862C39.0869 56.1665 38.8159 56.1238 38.55 56.0587L38.535 56.0512L38.5237 56.0437C38.1719 55.8641 37.8858 55.578 37.7063 55.2262L37.6912 55.1999L37.6575 55.0799C37.6049 54.8533 37.5735 54.6223 37.5638 54.3899C37.5038 53.6399 37.5 52.6387 37.5 50.9999V23.9999C37.5 22.3612 37.5 21.3599 37.5638 20.6099C37.5834 20.3368 37.6261 20.0659 37.6912 19.7999L37.6988 19.7812L37.7063 19.7699C37.8858 19.4181 38.1719 19.132 38.5237 18.9524L38.55 18.9412L38.67 18.9074C38.8966 18.8548 39.1276 18.8234 39.36 18.8137C40.11 18.7537 41.1112 18.7499 42.75 18.7499Z" fill="#75C998"/>
</g>
<defs>
<clipPath id="clip0_325_262">
<rect width="60" height="60" fill="white"/>
</clipPath>
</defs>
</svg>
